<svg viewBox="0 0 500 500" xmlns="http://www.w3.org/2000/svg">
    <path fill="#eaeaea" d="M 95 180 C 95 180 125.559 148.81 145 140 C 169.836 128.745 187.764 125 210 125 C 225 125 250.943 129.443 250.943 129.443 L 340 5 C 340 5 345 0 360 0 C 375 0 380 5 380 5 L 495 125 C 495 125 500 130 500 140 C 500 155 495.847 160.259 495.847 160.259 L 370 250 C 370 250 375.33 275.533 375 290 C 374.493 312.23 370 330 360 355 C 352.073 374.817 320 405 320 405 Z M 165 275 L 225 335 L 20 495 C 20 495 6.655 501.035 2.607 496.84 C -1.33 492.76 5 480 5 480 Z"></path>
</svg>