<svg viewBox="0 0 500 500" xmlns="http://www.w3.org/2000/svg">
    <path fill="#eaeaea" d="M 95 180 C 95 180 104.055 170.758 115.444 160.914 L 340.757 383.199 C 330.358 395.252 320 405 320 405 Z M 210 125 C 225 125 250.943 129.443 250.943 129.443 L 340 5 C 340 5 345 0 360 0 C 375 0 380 5 380 5 L 495 125 C 495 125 500 130 500 140 C 500 155 495.847 160.259 495.847 160.259 L 370 250 C 370 250 375.33 275.533 375 290 C 374.543 310.037 370.848 326.45 362.8 347.8 L 470 455 C 470 455 479.859 470.141 475 475 C 470.141 479.859 455 470 455 470 L 249.958 264.958 L 131.525 148.117 C 131.836 147.895 132.147 147.675 132.457 147.457 L 25 40 C 25 40 15 25 20 20 C 25 15 40 25 40 25 L 151.965 136.965 C 173.315 128.061 189.897 125 210 125 Z M 165 275 L 225 335 L 20 495 C 20 495 6.655 501.035 2.607 496.84 C -1.33 492.76 5 480 5 480 Z"></path>
</svg>